<?xml version="1.0" standalone="no"?><!DOCTYPE svg PUBLIC "-//W3C//DTD SVG 1.1//EN" "http://www.w3.org/Graphics/SVG/1.1/DTD/svg11.dtd"><svg t="1573146382617" class="icon" viewBox="0 0 1024 1024" version="1.1" xmlns="http://www.w3.org/2000/svg" p-id="2768" xmlns:xlink="http://www.w3.org/1999/xlink" width="200" height="200"><defs><style type="text/css"></style></defs><path d="M852 0 172 0C77.408 0 0 77.408 0 172l0 680c0 94.592 77.408 172 172 172l680 0c94.592 0 172-77.408 172-172L1024 172C1024 77.408 946.592 0 852 0zM384 832l-128 0L256 384l128 0L384 832zM320 320c-35.36 0-64-28.64-64-64s28.64-64 64-64 64 28.64 64 64S355.36 320 320 320zM832 832l-128 0L704 576c0-35.36-28.64-64-64-64s-64 28.64-64 64l0 256-128 0L448 384l128 0 0 79.456C602.4 427.2 642.752 384 688 384c79.52 0 144 71.648 144 160L832 832z" p-id="2769" fill="#1296db"></path></svg>